<mxfile host="drawio-plugin" agent="Mozilla/5.0 (Windows NT 10.0; Win64; x64) AppleWebKit/537.36 (KHTML, like Gecko) Chrome/122.0.0.0 Safari/537.36" modified="2024-11-23T17:00:16.360Z" version="22.1.22" etag="0LPJDVSZBswFUpvTjaFj" type="embed">
  <diagram name="Page-1" id="5f0bae14-7c28-e335-631c-24af17079c00">
    <mxGraphModel dx="1071" dy="739" grid="1" gridSize="10" guides="1" tooltips="1" connect="1" arrows="1" fold="1" page="1" pageScale="1" pageWidth="1100" pageHeight="850" background="none" math="0" shadow="0">
      <root>
        <mxCell id="0" />
        <mxCell id="1" parent="0" />
        <mxCell id="n8QAAM1QE8m8qRbaEajq-6" value="«component»&lt;div&gt;«system (C4)»&lt;/div&gt;&lt;div&gt;&lt;b&gt;System&lt;/b&gt;&lt;/div&gt;" style="html=1;dropTarget=0;whiteSpace=wrap;aspect=fixed;container=1;align=center;horizontal=1;verticalAlign=top;" parent="1" vertex="1">
          <mxGeometry x="310" y="270" width="514.29" height="180" as="geometry" />
        </mxCell>
        <mxCell id="n8QAAM1QE8m8qRbaEajq-9" value="" style="ellipse;whiteSpace=wrap;html=1;aspect=fixed;" parent="1" vertex="1">
          <mxGeometry x="340" y="120" width="40" height="40" as="geometry" />
        </mxCell>
        <mxCell id="n8QAAM1QE8m8qRbaEajq-10" value="" style="endArrow=none;html=1;rounded=0;exitX=0.5;exitY=0;exitDx=0;exitDy=0;" parent="1" edge="1">
          <mxGeometry width="50" height="50" relative="1" as="geometry">
            <mxPoint x="360" y="250" as="sourcePoint" />
            <mxPoint x="360" y="160" as="targetPoint" />
          </mxGeometry>
        </mxCell>
        <mxCell id="n8QAAM1QE8m8qRbaEajq-11" value="&lt;font style=&quot;font-size: 17px;&quot;&gt;API&lt;/font&gt;" style="text;strokeColor=none;fillColor=none;align=left;verticalAlign=middle;spacingLeft=4;spacingRight=4;overflow=hidden;points=[[0,0.5],[1,0.5]];portConstraint=eastwest;rotatable=0;whiteSpace=wrap;html=1;" parent="1" vertex="1">
          <mxGeometry x="340" y="90" width="80" height="30" as="geometry" />
        </mxCell>
        <mxCell id="n8QAAM1QE8m8qRbaEajq-7" value="" style="shape=module;jettyWidth=8;jettyHeight=4;container=1;" parent="1" vertex="1">
          <mxGeometry x="790" y="280" width="20" height="20" as="geometry">
            <mxPoint x="-27" y="7" as="offset" />
          </mxGeometry>
        </mxCell>
        <mxCell id="n8QAAM1QE8m8qRbaEajq-12" value="«component»&lt;div&gt;«container (C4)»&lt;br&gt;&lt;b&gt;BE&lt;/b&gt;&lt;/div&gt;" style="html=1;dropTarget=0;whiteSpace=wrap;" parent="1" vertex="1">
          <mxGeometry x="497.14" y="340" width="140" height="70" as="geometry" />
        </mxCell>
        <mxCell id="n8QAAM1QE8m8qRbaEajq-13" value="" style="shape=module;jettyWidth=8;jettyHeight=4;" parent="n8QAAM1QE8m8qRbaEajq-12" vertex="1">
          <mxGeometry x="1" width="20" height="20" relative="1" as="geometry">
            <mxPoint x="-27" y="7" as="offset" />
          </mxGeometry>
        </mxCell>
        <mxCell id="n8QAAM1QE8m8qRbaEajq-14" value="" style="whiteSpace=wrap;html=1;aspect=fixed;" parent="1" vertex="1">
          <mxGeometry x="480" y="360" width="30" height="30" as="geometry" />
        </mxCell>
        <mxCell id="n8QAAM1QE8m8qRbaEajq-15" value="" style="whiteSpace=wrap;html=1;aspect=fixed;" parent="1" vertex="1">
          <mxGeometry x="345" y="250" width="30" height="30" as="geometry" />
        </mxCell>
        <mxCell id="n8QAAM1QE8m8qRbaEajq-16" value="" style="endArrow=none;html=1;rounded=0;" parent="1" edge="1">
          <mxGeometry width="50" height="50" relative="1" as="geometry">
            <mxPoint x="360" y="380" as="sourcePoint" />
            <mxPoint x="359.66" y="280" as="targetPoint" />
          </mxGeometry>
        </mxCell>
        <mxCell id="n8QAAM1QE8m8qRbaEajq-17" value="" style="endArrow=none;html=1;rounded=0;exitX=0;exitY=0.5;exitDx=0;exitDy=0;" parent="1" source="n8QAAM1QE8m8qRbaEajq-14" edge="1">
          <mxGeometry width="50" height="50" relative="1" as="geometry">
            <mxPoint x="360" y="475" as="sourcePoint" />
            <mxPoint x="359.66" y="375" as="targetPoint" />
          </mxGeometry>
        </mxCell>
      </root>
    </mxGraphModel>
  </diagram>
</mxfile>
